<mxfile host="app.diagrams.net" agent="Mozilla/5.0 (Windows NT 10.0; Win64; x64; rv:132.0) Gecko/20100101 Firefox/132.0" version="24.8.9">
  <diagram name="Page-1" id="eu4nlycGCcAG79QWP7Ku">
    <mxGraphModel dx="1750" dy="930" grid="1" gridSize="10" guides="1" tooltips="1" connect="1" arrows="1" fold="1" page="1" pageScale="1" pageWidth="827" pageHeight="1169" math="0" shadow="0">
      <root>
        <mxCell id="0" />
        <mxCell id="1" parent="0" />
        <mxCell id="JVe_eLRL-p_i7-8KbHK7-1" value="Gestion du réservoir d&#39;eau" style="shape=ellipse;html=1;dashed=0;whiteSpace=wrap;perimeter=ellipsePerimeter;" vertex="1" parent="1">
          <mxGeometry x="130" y="110" width="130" height="80" as="geometry" />
        </mxCell>
        <mxCell id="JVe_eLRL-p_i7-8KbHK7-2" value="Gestion de moyenne" style="shape=ellipse;html=1;dashed=0;whiteSpace=wrap;perimeter=ellipsePerimeter;" vertex="1" parent="1">
          <mxGeometry x="130" y="290" width="130" height="80" as="geometry" />
        </mxCell>
        <mxCell id="JVe_eLRL-p_i7-8KbHK7-3" value="Gestion du capteur de CO2" style="shape=ellipse;html=1;dashed=0;whiteSpace=wrap;perimeter=ellipsePerimeter;" vertex="1" parent="1">
          <mxGeometry x="130" y="470" width="130" height="80" as="geometry" />
        </mxCell>
        <mxCell id="JVe_eLRL-p_i7-8KbHK7-4" value="Gestion du réservoir de fuel" style="shape=ellipse;html=1;dashed=0;whiteSpace=wrap;perimeter=ellipsePerimeter;" vertex="1" parent="1">
          <mxGeometry x="130" y="640" width="130" height="80" as="geometry" />
        </mxCell>
        <mxCell id="JVe_eLRL-p_i7-8KbHK7-5" value="Panneau de contrôle" style="shape=ellipse;html=1;dashed=0;whiteSpace=wrap;perimeter=ellipsePerimeter;" vertex="1" parent="1">
          <mxGeometry x="450" y="380" width="130" height="80" as="geometry" />
        </mxCell>
        <mxCell id="JVe_eLRL-p_i7-8KbHK7-6" value="Gestion de la chaudière à vapeur" style="shape=ellipse;html=1;dashed=0;whiteSpace=wrap;perimeter=ellipsePerimeter;" vertex="1" parent="1">
          <mxGeometry x="550" y="630" width="130" height="80" as="geometry" />
        </mxCell>
        <mxCell id="JVe_eLRL-p_i7-8KbHK7-7" value="Gestion de la chaudière eau" style="shape=ellipse;html=1;dashed=0;whiteSpace=wrap;perimeter=ellipsePerimeter;" vertex="1" parent="1">
          <mxGeometry x="560" y="180" width="130" height="80" as="geometry" />
        </mxCell>
        <mxCell id="JVe_eLRL-p_i7-8KbHK7-8" value="IHM" style="shape=ellipse;html=1;dashed=0;whiteSpace=wrap;perimeter=ellipsePerimeter;" vertex="1" parent="1">
          <mxGeometry x="700" y="380" width="130" height="80" as="geometry" />
        </mxCell>
        <mxCell id="JVe_eLRL-p_i7-8KbHK7-10" value="He" style="html=1;verticalAlign=bottom;labelBackgroundColor=none;endArrow=open;endFill=0;dashed=1;rounded=0;" edge="1" parent="1">
          <mxGeometry width="160" relative="1" as="geometry">
            <mxPoint x="60" y="50" as="sourcePoint" />
            <mxPoint x="140" y="100" as="targetPoint" />
          </mxGeometry>
        </mxCell>
        <mxCell id="JVe_eLRL-p_i7-8KbHK7-11" value="Be" style="html=1;verticalAlign=bottom;labelBackgroundColor=none;endArrow=open;endFill=0;dashed=1;rounded=0;" edge="1" parent="1">
          <mxGeometry width="160" relative="1" as="geometry">
            <mxPoint x="40" y="70" as="sourcePoint" />
            <mxPoint x="120" y="120" as="targetPoint" />
          </mxGeometry>
        </mxCell>
        <mxCell id="JVe_eLRL-p_i7-8KbHK7-12" value="be" style="html=1;verticalAlign=bottom;labelBackgroundColor=none;endArrow=open;endFill=0;dashed=1;rounded=0;" edge="1" parent="1">
          <mxGeometry width="160" relative="1" as="geometry">
            <mxPoint x="30" y="100" as="sourcePoint" />
            <mxPoint x="110" y="150" as="targetPoint" />
          </mxGeometry>
        </mxCell>
        <mxCell id="JVe_eLRL-p_i7-8KbHK7-14" value="&lt;div&gt;Vf1&lt;/div&gt;" style="html=1;whiteSpace=wrap;" vertex="1" parent="1">
          <mxGeometry x="140" y="770" width="110" height="50" as="geometry" />
        </mxCell>
        <mxCell id="JVe_eLRL-p_i7-8KbHK7-18" value="" style="endArrow=none;startArrow=none;endFill=0;startFill=0;endSize=8;html=1;verticalAlign=bottom;labelBackgroundColor=none;strokeWidth=3;rounded=0;exitX=0.5;exitY=0;exitDx=0;exitDy=0;entryX=0.5;entryY=1;entryDx=0;entryDy=0;" edge="1" parent="1" source="JVe_eLRL-p_i7-8KbHK7-14" target="JVe_eLRL-p_i7-8KbHK7-4">
          <mxGeometry width="160" relative="1" as="geometry">
            <mxPoint x="280" y="290" as="sourcePoint" />
            <mxPoint x="213" y="188" as="targetPoint" />
          </mxGeometry>
        </mxCell>
        <mxCell id="JVe_eLRL-p_i7-8KbHK7-24" value="Nf" style="html=1;verticalAlign=bottom;labelBackgroundColor=none;endArrow=block;endFill=1;endSize=6;align=left;rounded=0;" edge="1" parent="1">
          <mxGeometry relative="1" as="geometry">
            <mxPoint x="60" y="260" as="sourcePoint" />
            <mxPoint x="120" y="300" as="targetPoint" />
            <mxPoint as="offset" />
          </mxGeometry>
        </mxCell>
        <mxCell id="JVe_eLRL-p_i7-8KbHK7-25" value="Ne" style="html=1;verticalAlign=bottom;labelBackgroundColor=none;endArrow=block;endFill=1;endSize=6;align=left;rounded=0;" edge="1" parent="1">
          <mxGeometry relative="1" as="geometry">
            <mxPoint x="50" y="290" as="sourcePoint" />
            <mxPoint x="110" y="330" as="targetPoint" />
            <mxPoint as="offset" />
          </mxGeometry>
        </mxCell>
        <mxCell id="JVe_eLRL-p_i7-8KbHK7-26" value="N1" style="html=1;verticalAlign=bottom;labelBackgroundColor=none;endArrow=open;endFill=0;dashed=1;rounded=0;" edge="1" parent="1">
          <mxGeometry width="160" relative="1" as="geometry">
            <mxPoint x="40" y="430" as="sourcePoint" />
            <mxPoint x="120" y="480" as="targetPoint" />
          </mxGeometry>
        </mxCell>
        <mxCell id="JVe_eLRL-p_i7-8KbHK7-27" value="N2" style="html=1;verticalAlign=bottom;labelBackgroundColor=none;endArrow=open;endFill=0;dashed=1;rounded=0;" edge="1" parent="1">
          <mxGeometry width="160" relative="1" as="geometry">
            <mxPoint x="30" y="460" as="sourcePoint" />
            <mxPoint x="110" y="510" as="targetPoint" />
          </mxGeometry>
        </mxCell>
        <mxCell id="JVe_eLRL-p_i7-8KbHK7-28" value="Hf" style="html=1;verticalAlign=bottom;labelBackgroundColor=none;endArrow=open;endFill=0;dashed=1;rounded=0;" edge="1" parent="1">
          <mxGeometry width="160" relative="1" as="geometry">
            <mxPoint x="50" y="585" as="sourcePoint" />
            <mxPoint x="130" y="635" as="targetPoint" />
          </mxGeometry>
        </mxCell>
        <mxCell id="JVe_eLRL-p_i7-8KbHK7-29" value="Bf" style="html=1;verticalAlign=bottom;labelBackgroundColor=none;endArrow=open;endFill=0;dashed=1;rounded=0;" edge="1" parent="1">
          <mxGeometry width="160" relative="1" as="geometry">
            <mxPoint x="30" y="605" as="sourcePoint" />
            <mxPoint x="110" y="655" as="targetPoint" />
          </mxGeometry>
        </mxCell>
        <mxCell id="JVe_eLRL-p_i7-8KbHK7-30" value="bf" style="html=1;verticalAlign=bottom;labelBackgroundColor=none;endArrow=open;endFill=0;dashed=1;rounded=0;" edge="1" parent="1">
          <mxGeometry width="160" relative="1" as="geometry">
            <mxPoint x="20" y="635" as="sourcePoint" />
            <mxPoint x="100" y="685" as="targetPoint" />
          </mxGeometry>
        </mxCell>
        <mxCell id="JVe_eLRL-p_i7-8KbHK7-31" value="Ve1" style="html=1;whiteSpace=wrap;" vertex="1" parent="1">
          <mxGeometry x="150" y="20" width="110" height="50" as="geometry" />
        </mxCell>
        <mxCell id="JVe_eLRL-p_i7-8KbHK7-32" value="" style="endArrow=none;startArrow=none;endFill=0;startFill=0;endSize=8;html=1;verticalAlign=bottom;labelBackgroundColor=none;strokeWidth=3;rounded=0;exitX=0.5;exitY=1;exitDx=0;exitDy=0;" edge="1" parent="1" source="JVe_eLRL-p_i7-8KbHK7-31">
          <mxGeometry width="160" relative="1" as="geometry">
            <mxPoint x="290" y="300" as="sourcePoint" />
            <mxPoint x="205" y="110" as="targetPoint" />
          </mxGeometry>
        </mxCell>
        <mxCell id="JVe_eLRL-p_i7-8KbHK7-33" value="F/O" style="text;strokeColor=none;fillColor=none;spacingLeft=4;spacingRight=4;overflow=hidden;rotatable=0;points=[[0,0.5],[1,0.5]];portConstraint=eastwest;fontSize=12;whiteSpace=wrap;html=1;" vertex="1" parent="1">
          <mxGeometry x="220" y="80" width="40" height="30" as="geometry" />
        </mxCell>
        <mxCell id="JVe_eLRL-p_i7-8KbHK7-34" value="F/O" style="text;strokeColor=none;fillColor=none;spacingLeft=4;spacingRight=4;overflow=hidden;rotatable=0;points=[[0,0.5],[1,0.5]];portConstraint=eastwest;fontSize=12;whiteSpace=wrap;html=1;" vertex="1" parent="1">
          <mxGeometry x="220" y="740" width="40" height="30" as="geometry" />
        </mxCell>
        <mxCell id="JVe_eLRL-p_i7-8KbHK7-35" value="EAU_NIV_BAS" style="html=1;verticalAlign=bottom;labelBackgroundColor=none;endArrow=open;endFill=0;dashed=1;rounded=0;exitX=0.992;exitY=0.4;exitDx=0;exitDy=0;exitPerimeter=0;entryX=0.5;entryY=0;entryDx=0;entryDy=0;" edge="1" parent="1" source="JVe_eLRL-p_i7-8KbHK7-1" target="JVe_eLRL-p_i7-8KbHK7-5">
          <mxGeometry x="0.083" y="10" width="160" relative="1" as="geometry">
            <mxPoint x="270" y="160" as="sourcePoint" />
            <mxPoint x="350" y="210" as="targetPoint" />
            <mxPoint as="offset" />
          </mxGeometry>
        </mxCell>
        <mxCell id="JVe_eLRL-p_i7-8KbHK7-37" value="moy. Ne" style="html=1;verticalAlign=bottom;labelBackgroundColor=none;endArrow=block;endFill=1;endSize=6;align=left;rounded=0;exitX=1;exitY=0.388;exitDx=0;exitDy=0;exitPerimeter=0;entryX=0.331;entryY=0.063;entryDx=0;entryDy=0;entryPerimeter=0;" edge="1" parent="1" source="JVe_eLRL-p_i7-8KbHK7-2" target="JVe_eLRL-p_i7-8KbHK7-5">
          <mxGeometry x="-0.3335" y="19" relative="1" as="geometry">
            <mxPoint x="290" y="310" as="sourcePoint" />
            <mxPoint x="350" y="350" as="targetPoint" />
            <mxPoint as="offset" />
          </mxGeometry>
        </mxCell>
        <mxCell id="JVe_eLRL-p_i7-8KbHK7-38" value="moy. Nf" style="html=1;verticalAlign=bottom;labelBackgroundColor=none;endArrow=block;endFill=1;endSize=6;align=left;rounded=0;exitX=0.985;exitY=0.625;exitDx=0;exitDy=0;exitPerimeter=0;" edge="1" parent="1" source="JVe_eLRL-p_i7-8KbHK7-2" target="JVe_eLRL-p_i7-8KbHK7-5">
          <mxGeometry x="-0.3088" y="-17" relative="1" as="geometry">
            <mxPoint x="270" y="341" as="sourcePoint" />
            <mxPoint x="469" y="270" as="targetPoint" />
            <mxPoint as="offset" />
          </mxGeometry>
        </mxCell>
        <mxCell id="JVe_eLRL-p_i7-8KbHK7-39" value="START/STOP" style="html=1;verticalAlign=bottom;labelBackgroundColor=none;endArrow=open;endFill=0;dashed=1;rounded=0;exitX=0.385;exitY=0;exitDx=0;exitDy=0;exitPerimeter=0;" edge="1" parent="1" source="JVe_eLRL-p_i7-8KbHK7-5" target="JVe_eLRL-p_i7-8KbHK7-1">
          <mxGeometry x="0.0537" y="29" width="160" relative="1" as="geometry">
            <mxPoint x="269" y="152" as="sourcePoint" />
            <mxPoint x="468" y="220" as="targetPoint" />
            <mxPoint as="offset" />
          </mxGeometry>
        </mxCell>
        <mxCell id="JVe_eLRL-p_i7-8KbHK7-40" value="CO2_NIV_HAUT" style="html=1;verticalAlign=bottom;labelBackgroundColor=none;endArrow=open;endFill=0;dashed=1;rounded=0;" edge="1" parent="1" source="JVe_eLRL-p_i7-8KbHK7-3" target="JVe_eLRL-p_i7-8KbHK7-5">
          <mxGeometry x="0.2167" y="-12" width="160" relative="1" as="geometry">
            <mxPoint x="269" y="152" as="sourcePoint" />
            <mxPoint x="525" y="390" as="targetPoint" />
            <mxPoint y="-1" as="offset" />
          </mxGeometry>
        </mxCell>
        <mxCell id="JVe_eLRL-p_i7-8KbHK7-41" value="CO2_NIV_BAS" style="html=1;verticalAlign=bottom;labelBackgroundColor=none;endArrow=open;endFill=0;dashed=1;rounded=0;exitX=1;exitY=0.5;exitDx=0;exitDy=0;entryX=0.285;entryY=0.963;entryDx=0;entryDy=0;entryPerimeter=0;" edge="1" parent="1" source="JVe_eLRL-p_i7-8KbHK7-3" target="JVe_eLRL-p_i7-8KbHK7-5">
          <mxGeometry x="0.0025" y="-27" width="160" relative="1" as="geometry">
            <mxPoint x="264" y="503" as="sourcePoint" />
            <mxPoint x="466" y="447" as="targetPoint" />
            <mxPoint as="offset" />
          </mxGeometry>
        </mxCell>
        <mxCell id="JVe_eLRL-p_i7-8KbHK7-42" value="FUEL_NIV_BAS" style="html=1;verticalAlign=bottom;labelBackgroundColor=none;endArrow=open;endFill=0;dashed=1;rounded=0;exitX=0.985;exitY=0.613;exitDx=0;exitDy=0;entryX=0.4;entryY=0.963;entryDx=0;entryDy=0;entryPerimeter=0;exitPerimeter=0;" edge="1" parent="1" source="JVe_eLRL-p_i7-8KbHK7-4" target="JVe_eLRL-p_i7-8KbHK7-5">
          <mxGeometry x="0.0187" y="-40" width="160" relative="1" as="geometry">
            <mxPoint x="270" y="520" as="sourcePoint" />
            <mxPoint x="497" y="467" as="targetPoint" />
            <mxPoint as="offset" />
          </mxGeometry>
        </mxCell>
        <mxCell id="JVe_eLRL-p_i7-8KbHK7-44" value="START/STOP" style="html=1;verticalAlign=bottom;labelBackgroundColor=none;endArrow=open;endFill=0;dashed=1;rounded=0;exitX=0.615;exitY=0;exitDx=0;exitDy=0;exitPerimeter=0;entryX=0.215;entryY=0.938;entryDx=0;entryDy=0;entryPerimeter=0;" edge="1" parent="1" source="JVe_eLRL-p_i7-8KbHK7-5" target="JVe_eLRL-p_i7-8KbHK7-7">
          <mxGeometry x="0.1666" y="-7" width="160" relative="1" as="geometry">
            <mxPoint x="510" y="390" as="sourcePoint" />
            <mxPoint x="246" y="191" as="targetPoint" />
            <mxPoint as="offset" />
          </mxGeometry>
        </mxCell>
        <mxCell id="JVe_eLRL-p_i7-8KbHK7-45" value="START/STOP" style="html=1;verticalAlign=bottom;labelBackgroundColor=none;endArrow=open;endFill=0;dashed=1;rounded=0;exitX=0.654;exitY=0.975;exitDx=0;exitDy=0;exitPerimeter=0;entryX=0.308;entryY=0;entryDx=0;entryDy=0;entryPerimeter=0;" edge="1" parent="1" source="JVe_eLRL-p_i7-8KbHK7-5" target="JVe_eLRL-p_i7-8KbHK7-6">
          <mxGeometry x="0.2657" y="-10" width="160" relative="1" as="geometry">
            <mxPoint x="540" y="390" as="sourcePoint" />
            <mxPoint x="598" y="265" as="targetPoint" />
            <mxPoint as="offset" />
          </mxGeometry>
        </mxCell>
        <mxCell id="JVe_eLRL-p_i7-8KbHK7-46" value="START/STOP" style="html=1;verticalAlign=bottom;labelBackgroundColor=none;endArrow=open;endFill=0;dashed=1;rounded=0;exitX=0.554;exitY=1.025;exitDx=0;exitDy=0;exitPerimeter=0;entryX=0.977;entryY=0.763;entryDx=0;entryDy=0;entryPerimeter=0;" edge="1" parent="1" source="JVe_eLRL-p_i7-8KbHK7-5" target="JVe_eLRL-p_i7-8KbHK7-4">
          <mxGeometry x="0.0537" y="29" width="160" relative="1" as="geometry">
            <mxPoint x="550" y="400" as="sourcePoint" />
            <mxPoint x="270" y="710" as="targetPoint" />
            <mxPoint as="offset" />
            <Array as="points">
              <mxPoint x="460" y="650" />
            </Array>
          </mxGeometry>
        </mxCell>
        <mxCell id="JVe_eLRL-p_i7-8KbHK7-47" value="START/STOP" style="html=1;verticalAlign=bottom;labelBackgroundColor=none;endArrow=open;endFill=0;dashed=1;rounded=0;exitX=0;exitY=0.5;exitDx=0;exitDy=0;" edge="1" parent="1" source="JVe_eLRL-p_i7-8KbHK7-5">
          <mxGeometry x="0.1631" y="-9" width="160" relative="1" as="geometry">
            <mxPoint x="560" y="410" as="sourcePoint" />
            <mxPoint x="230" y="470" as="targetPoint" />
            <mxPoint as="offset" />
          </mxGeometry>
        </mxCell>
        <mxCell id="JVe_eLRL-p_i7-8KbHK7-48" value="Tv" style="html=1;verticalAlign=bottom;labelBackgroundColor=none;endArrow=block;endFill=1;endSize=6;align=left;rounded=0;exitX=1;exitY=1;exitDx=0;exitDy=0;entryX=0.654;entryY=0.013;entryDx=0;entryDy=0;entryPerimeter=0;" edge="1" parent="1" source="JVe_eLRL-p_i7-8KbHK7-5" target="JVe_eLRL-p_i7-8KbHK7-6">
          <mxGeometry x="-0.2675" y="-22" relative="1" as="geometry">
            <mxPoint x="270" y="331" as="sourcePoint" />
            <mxPoint x="640" y="620" as="targetPoint" />
            <mxPoint as="offset" />
            <Array as="points">
              <mxPoint x="640" y="530" />
            </Array>
          </mxGeometry>
        </mxCell>
        <mxCell id="JVe_eLRL-p_i7-8KbHK7-49" value="Pv" style="html=1;verticalAlign=bottom;labelBackgroundColor=none;endArrow=block;endFill=1;endSize=6;align=left;rounded=0;entryX=0.692;entryY=-0.012;entryDx=0;entryDy=0;entryPerimeter=0;exitX=0.977;exitY=0.675;exitDx=0;exitDy=0;exitPerimeter=0;" edge="1" parent="1" source="JVe_eLRL-p_i7-8KbHK7-5">
          <mxGeometry x="0.5703" y="10" relative="1" as="geometry">
            <mxPoint x="571" y="458" as="sourcePoint" />
            <mxPoint x="650" y="639" as="targetPoint" />
            <mxPoint as="offset" />
            <Array as="points">
              <mxPoint x="670" y="540" />
            </Array>
          </mxGeometry>
        </mxCell>
        <mxCell id="JVe_eLRL-p_i7-8KbHK7-50" value="O/F Gaz" style="html=1;verticalAlign=bottom;labelBackgroundColor=none;endArrow=open;endFill=0;dashed=1;rounded=0;exitX=1;exitY=0.5;exitDx=0;exitDy=0;entryX=1;entryY=0.5;entryDx=0;entryDy=0;" edge="1" parent="1" source="JVe_eLRL-p_i7-8KbHK7-5" target="JVe_eLRL-p_i7-8KbHK7-6">
          <mxGeometry x="-0.0124" y="14" width="160" relative="1" as="geometry">
            <mxPoint x="532" y="472" as="sourcePoint" />
            <mxPoint x="267" y="711" as="targetPoint" />
            <mxPoint as="offset" />
            <Array as="points">
              <mxPoint x="720" y="560" />
            </Array>
          </mxGeometry>
        </mxCell>
        <mxCell id="JVe_eLRL-p_i7-8KbHK7-51" value="&lt;div&gt;moy. Ne&lt;/div&gt;&lt;div&gt;moy. Nf&lt;/div&gt;&lt;div&gt;Pv&lt;/div&gt;&lt;div&gt;Tv&lt;/div&gt;&lt;div&gt;moy. Te&lt;br&gt;&lt;/div&gt;" style="html=1;verticalAlign=bottom;labelBackgroundColor=none;endArrow=block;endFill=1;endSize=6;align=left;rounded=0;exitX=1;exitY=0.4;exitDx=0;exitDy=0;exitPerimeter=0;entryX=0;entryY=0.625;entryDx=0;entryDy=0;entryPerimeter=0;" edge="1" parent="1" source="JVe_eLRL-p_i7-8KbHK7-5" target="JVe_eLRL-p_i7-8KbHK7-8">
          <mxGeometry x="-0.3529" y="8" relative="1" as="geometry">
            <mxPoint x="270" y="331" as="sourcePoint" />
            <mxPoint x="650" y="340" as="targetPoint" />
            <mxPoint as="offset" />
          </mxGeometry>
        </mxCell>
        <mxCell id="JVe_eLRL-p_i7-8KbHK7-53" value="" style="html=1;points=[];perimeter=orthogonalPerimeter;fillColor=strokeColor;" vertex="1" parent="1">
          <mxGeometry x="610" y="340" width="5" height="70" as="geometry" />
        </mxCell>
        <mxCell id="JVe_eLRL-p_i7-8KbHK7-54" value="Te" style="html=1;verticalAlign=bottom;labelBackgroundColor=none;endArrow=block;endFill=1;endSize=6;align=left;rounded=0;exitX=0.446;exitY=1.038;exitDx=0;exitDy=0;exitPerimeter=0;" edge="1" parent="1" source="JVe_eLRL-p_i7-8KbHK7-7" target="JVe_eLRL-p_i7-8KbHK7-5">
          <mxGeometry x="-0.3529" y="8" relative="1" as="geometry">
            <mxPoint x="590" y="422" as="sourcePoint" />
            <mxPoint x="710" y="440" as="targetPoint" />
            <mxPoint as="offset" />
            <Array as="points">
              <mxPoint x="600" y="330" />
            </Array>
          </mxGeometry>
        </mxCell>
        <mxCell id="JVe_eLRL-p_i7-8KbHK7-55" value="Vf3" style="html=1;whiteSpace=wrap;" vertex="1" parent="1">
          <mxGeometry x="480" y="80" width="110" height="50" as="geometry" />
        </mxCell>
        <mxCell id="JVe_eLRL-p_i7-8KbHK7-56" value="" style="endArrow=none;startArrow=none;endFill=0;startFill=0;endSize=8;html=1;verticalAlign=bottom;labelBackgroundColor=none;strokeWidth=3;rounded=0;exitX=0.5;exitY=1;exitDx=0;exitDy=0;entryX=0.5;entryY=0;entryDx=0;entryDy=0;" edge="1" parent="1" source="JVe_eLRL-p_i7-8KbHK7-55" target="JVe_eLRL-p_i7-8KbHK7-7">
          <mxGeometry width="160" relative="1" as="geometry">
            <mxPoint x="720" y="350" as="sourcePoint" />
            <mxPoint x="635" y="160" as="targetPoint" />
          </mxGeometry>
        </mxCell>
        <mxCell id="JVe_eLRL-p_i7-8KbHK7-57" value="O/Omoyenne/F" style="text;strokeColor=none;fillColor=none;spacingLeft=4;spacingRight=4;overflow=hidden;rotatable=0;points=[[0,0.5],[1,0.5]];portConstraint=eastwest;fontSize=12;whiteSpace=wrap;html=1;" vertex="1" parent="1">
          <mxGeometry x="615" y="110" width="70" height="55" as="geometry" />
        </mxCell>
        <mxCell id="JVe_eLRL-p_i7-8KbHK7-59" value="&lt;div&gt;Ve2&lt;/div&gt;" style="html=1;whiteSpace=wrap;" vertex="1" parent="1">
          <mxGeometry x="440" y="770" width="110" height="50" as="geometry" />
        </mxCell>
        <mxCell id="JVe_eLRL-p_i7-8KbHK7-60" value="" style="endArrow=none;startArrow=none;endFill=0;startFill=0;endSize=8;html=1;verticalAlign=bottom;labelBackgroundColor=none;strokeWidth=3;rounded=0;exitX=0.5;exitY=0;exitDx=0;exitDy=0;entryX=0.5;entryY=1;entryDx=0;entryDy=0;" edge="1" parent="1" source="JVe_eLRL-p_i7-8KbHK7-59" target="JVe_eLRL-p_i7-8KbHK7-6">
          <mxGeometry width="160" relative="1" as="geometry">
            <mxPoint x="630" y="1020" as="sourcePoint" />
            <mxPoint x="545" y="830" as="targetPoint" />
          </mxGeometry>
        </mxCell>
        <mxCell id="JVe_eLRL-p_i7-8KbHK7-61" value="F/O" style="text;strokeColor=none;fillColor=none;spacingLeft=4;spacingRight=4;overflow=hidden;rotatable=0;points=[[0,0.5],[1,0.5]];portConstraint=eastwest;fontSize=12;whiteSpace=wrap;html=1;" vertex="1" parent="1">
          <mxGeometry x="620" y="730" width="40" height="30" as="geometry" />
        </mxCell>
        <mxCell id="JVe_eLRL-p_i7-8KbHK7-62" value="&lt;div&gt;Ve2&lt;/div&gt;" style="html=1;whiteSpace=wrap;" vertex="1" parent="1">
          <mxGeometry x="570" y="770" width="110" height="50" as="geometry" />
        </mxCell>
        <mxCell id="JVe_eLRL-p_i7-8KbHK7-63" value="" style="endArrow=none;startArrow=none;endFill=0;startFill=0;endSize=8;html=1;verticalAlign=bottom;labelBackgroundColor=none;strokeWidth=3;rounded=0;exitX=0.5;exitY=0;exitDx=0;exitDy=0;entryX=0.5;entryY=1;entryDx=0;entryDy=0;" edge="1" parent="1" source="JVe_eLRL-p_i7-8KbHK7-62" target="JVe_eLRL-p_i7-8KbHK7-6">
          <mxGeometry width="160" relative="1" as="geometry">
            <mxPoint x="505" y="780" as="sourcePoint" />
            <mxPoint x="630" y="714" as="targetPoint" />
          </mxGeometry>
        </mxCell>
        <mxCell id="JVe_eLRL-p_i7-8KbHK7-64" value="" style="endArrow=none;startArrow=none;endFill=0;startFill=0;endSize=8;html=1;verticalAlign=bottom;labelBackgroundColor=none;strokeWidth=3;rounded=0;entryX=0.5;entryY=1;entryDx=0;entryDy=0;exitX=0.5;exitY=0;exitDx=0;exitDy=0;" edge="1" parent="1" source="JVe_eLRL-p_i7-8KbHK7-65" target="JVe_eLRL-p_i7-8KbHK7-6">
          <mxGeometry width="160" relative="1" as="geometry">
            <mxPoint x="750" y="760" as="sourcePoint" />
            <mxPoint x="625" y="720" as="targetPoint" />
          </mxGeometry>
        </mxCell>
        <mxCell id="JVe_eLRL-p_i7-8KbHK7-65" value="&lt;div&gt;Ve2&lt;/div&gt;" style="html=1;whiteSpace=wrap;" vertex="1" parent="1">
          <mxGeometry x="700" y="770" width="110" height="50" as="geometry" />
        </mxCell>
        <mxCell id="JVe_eLRL-p_i7-8KbHK7-66" value="F/O" style="text;strokeColor=none;fillColor=none;spacingLeft=4;spacingRight=4;overflow=hidden;rotatable=0;points=[[0,0.5],[1,0.5]];portConstraint=eastwest;fontSize=12;whiteSpace=wrap;html=1;" vertex="1" parent="1">
          <mxGeometry x="510" y="710" width="40" height="30" as="geometry" />
        </mxCell>
        <mxCell id="JVe_eLRL-p_i7-8KbHK7-67" value="F/O" style="text;strokeColor=none;fillColor=none;spacingLeft=4;spacingRight=4;overflow=hidden;rotatable=0;points=[[0,0.5],[1,0.5]];portConstraint=eastwest;fontSize=12;whiteSpace=wrap;html=1;" vertex="1" parent="1">
          <mxGeometry x="700" y="720" width="40" height="30" as="geometry" />
        </mxCell>
      </root>
    </mxGraphModel>
  </diagram>
</mxfile>
